<svg width="8" height="5" viewBox="0 0 8 5" fill="none" xmlns="http://www.w3.org/2000/svg">
<path d="M3.29133 3.92398L0.1402 0.772876C0.0967334 0.729409 0.0625 0.680875 0.0375 0.627275C0.0125 0.573658 0 0.516217 0 0.45495C0 0.332417 0.0414337 0.225959 0.1243 0.135576C0.20715 0.0451925 0.316358 0 0.451925 0H7.09033C7.22589 0 7.3351 0.0456259 7.41795 0.136876C7.50082 0.228143 7.54225 0.334609 7.54225 0.456276C7.54225 0.486709 7.49545 0.592309 7.40185 0.773076L4.25092 3.924C4.17849 3.99643 4.10362 4.04932 4.0263 4.08265C3.94897 4.11598 3.86391 4.13265 3.77113 4.13265C3.67834 4.13265 3.59328 4.11598 3.51595 4.08265C3.43863 4.04932 3.36376 3.99643 3.29133 3.92398Z" fill="white"/>
</svg>
