<svg width="15" height="19" viewBox="0 0 15 19" fill="none" xmlns="http://www.w3.org/2000/svg">
<path d="M4.34387 9.76725C4.13129 9.76725 3.95321 9.69538 3.80962 9.55163C3.66604 9.40789 3.59425 9.22978 3.59425 9.01728V2.48647L1.2769 4.80383C1.14165 4.94228 0.972583 5.0115 0.7697 5.0115C0.566817 5.0115 0.387817 4.93977 0.2327 4.7963C0.0775666 4.63978 0 4.46088 0 4.2596C0 4.05832 0.0775666 3.88012 0.2327 3.725L3.70192 0.255775C3.79551 0.162192 3.89465 0.0961663 3.99935 0.0576996C4.10405 0.0192329 4.21623 0 4.3359 0C4.45555 0 4.56922 0.0193753 4.6769 0.0581253C4.7846 0.096892 4.8846 0.162775 4.9769 0.255775L8.47112 3.75C8.61984 3.89872 8.69324 4.07115 8.69132 4.2673C8.68939 4.46345 8.61087 4.63978 8.45575 4.7963C8.30063 4.93977 8.125 5.01407 7.92885 5.0192C7.7327 5.02433 7.55706 4.94933 7.40192 4.7942L5.0942 2.48647V9.0269C5.0942 9.23667 5.0223 9.4125 4.8785 9.5544C4.73468 9.6963 4.55647 9.76725 4.34387 9.76725ZM10.0256 18.2365C9.90595 18.2365 9.79228 18.2171 9.6846 18.1784C9.5769 18.1396 9.4769 18.0737 9.3846 17.9807L5.89038 14.4865C5.74166 14.3378 5.66826 14.1653 5.67018 13.9692C5.67211 13.7731 5.75063 13.5967 5.90575 13.4402C6.06087 13.2967 6.2365 13.2224 6.43265 13.2173C6.6288 13.2122 6.80444 13.2872 6.95958 13.4423L9.2673 15.75V9.2096C9.2673 8.99983 9.3392 8.82399 9.483 8.68207C9.62682 8.54017 9.80502 8.46922 10.0176 8.46922C10.2302 8.46922 10.4083 8.5411 10.5519 8.68485C10.6955 8.8286 10.7673 9.00672 10.7673 9.2192V15.75L13.0846 13.4327C13.2198 13.2942 13.3889 13.225 13.5918 13.225C13.7947 13.225 13.9737 13.2967 14.1288 13.4402C14.2839 13.5967 14.3615 13.7756 14.3615 13.9769C14.3615 14.1782 14.2839 14.3564 14.1288 14.5115L10.6596 17.9807C10.566 18.0743 10.4668 18.1403 10.3621 18.1788C10.2574 18.2172 10.1453 18.2365 10.0256 18.2365Z" fill="white"/>
</svg>
